<!-- <svg xmlns="http://www.w3.org/2000/svg" viewBox="0 0 24 24" width="24" height="24" color="#000000" fill="white">
    <path d="M15.9351 12.6258C15.6807 13.8374 14.327 14.7077 11.6198 16.4481C8.67528 18.3411 7.20303 19.2876 6.01052 18.9229C5.60662 18.7994 5.23463 18.5823 4.92227 18.2876C4 17.4178 4 15.6118 4 12C4 8.38816 4 6.58224 4.92227 5.71235C5.23463 5.41773 5.60662 5.20057 6.01052 5.07707C7.20304 4.71243 8.67528 5.6589 11.6198 7.55186C14.327 9.29233 15.6807 10.1626 15.9351 11.3742C16.0216 11.7865 16.0216 12.2135 15.9351 12.6258Z" stroke="white" stroke-width="1.5" stroke-linejoin="miter" />
    <path d="M20 5V19" stroke="white" stroke-width="1.5" stroke-linecap="miter" />
</svg> -->
<svg xmlns="http://www.w3.org/2000/svg" width="16" height="16" fill="currentColor" class="bi bi-skip-end-fill" viewBox="0 0 16 16">
  <path d="M12.5 4a.5.5 0 0 0-1 0v3.248L5.233 3.612C4.693 3.3 4 3.678 4 4.308v7.384c0 .63.692 1.01 1.233.697L11.5 8.753V12a.5.5 0 0 0 1 0z"/>
</svg>